<svg xmlns="http://www.w3.org/2000/svg" width="121.883" height="52.539" viewBox="0 0 121.883 52.539">
  <g id="Warstwa_2" data-name="Warstwa 2" transform="translate(0.026)">
    <g id="Warstwa_1" data-name="Warstwa 1" transform="translate(-0.026)">
      <path id="Path_2546" data-name="Path 2546" d="M6.35,68.18a.628.628,0,0,0-.62.613.635.635,0,0,0,.62.62.59.59,0,0,0,.433-.187.613.613,0,0,0,.179-.433.583.583,0,0,0-.179-.433.6.6,0,0,0-.433-.179" transform="translate(-1.429 -17.229)" fill="#55C5D1"/>
      <path id="Path_2547" data-name="Path 2547" d="M8.605,68.18a.613.613,0,0,0-.433.179A.59.59,0,0,0,8,68.793a.635.635,0,0,0,.62.62.59.59,0,0,0,.433-.187.624.624,0,0,0-.448-1.046" transform="translate(-2.002 -17.229)" fill="#55C5D1"/>
      <path id="Path_2548" data-name="Path 2548" d="M65.731,57.367l.037,6.068H55.156l1.562-1.495v-.291a2.989,2.989,0,0,0-.4-1.495,3.034,3.034,0,0,0-1.084-1.091,2.989,2.989,0,0,0-2.989,0,2.937,2.937,0,0,0-1.084,1.1,2.989,2.989,0,0,0-.4,1.495v.321L52.3,63.406H39.978l-.037-4.813H38.013A4.215,4.215,0,0,0,36.048,59a2.6,2.6,0,0,0-1.128,1.084,3.166,3.166,0,0,0-.172,2.638,2.242,2.242,0,0,0,.426.747H25.361l-.037-6.143-1.024.037.037,7.1H52.967a1.121,1.121,0,0,0,.463-.082.508.508,0,0,0,.262-.291.971.971,0,0,0,.321.284,1.054,1.054,0,0,0,.471.09H66.792V57.33ZM38.013,63.435a2.66,2.66,0,0,1-1.846-.523,1.741,1.741,0,0,1-.553-1.345,1.786,1.786,0,0,1,.56-1.338,2.548,2.548,0,0,1,1.816-.538l.919-.037v3.737Zm15.738-.067-1.958-1.8a2.092,2.092,0,0,1,.3-.912,2.018,2.018,0,0,1,.7-.673,1.928,1.928,0,0,1,1.861,0,1.958,1.958,0,0,1,.7.673,2.354,2.354,0,0,1,.314.882Z" transform="translate(-6.121 -14.487)" fill="#55C5D1"/>
      <path id="Path_2549" data-name="Path 2549" d="M40.335,57.836a.568.568,0,0,0,.433-.187.6.6,0,0,0,.179-.433.568.568,0,0,0-.179-.426.583.583,0,0,0-.433-.179.62.62,0,0,0-.433.172.6.6,0,0,0,.03.867.575.575,0,0,0,.433.187" transform="translate(-10.02 -14.305)" fill="#55C5D1"/>
      <path id="Path_2550" data-name="Path 2550" d="M42.581,57.836a.568.568,0,0,0,.433-.187.6.6,0,0,0,.179-.433.568.568,0,0,0-.179-.426.583.583,0,0,0-.433-.179.62.62,0,0,0-.433.172.6.6,0,0,0,0,.867.575.575,0,0,0,.433.187" transform="translate(-10.584 -14.305)" fill="#55C5D1"/>
      <path id="Path_2551" data-name="Path 2551" d="M83.05,57.367l.037,7.1h1.024l-.045-7.137Z" transform="translate(-20.967 -14.487)" fill="#55C5D1"/>
      <path id="Path_2552" data-name="Path 2552" d="M114.63,67.81a.583.583,0,0,0-.433.179.568.568,0,0,0-.187.433.583.583,0,0,0,.187.441.613.613,0,0,0,.433.172.6.6,0,0,0,.433-.179.635.635,0,0,0,.172-.433.613.613,0,0,0-.605-.613" transform="translate(-28.791 -17.135)" fill="#55C5D1"/>
      <path id="Path_2553" data-name="Path 2553" d="M140.53,57.347l.037,6.068H129.724V58.6H128.7v4.738h-1.091a1.255,1.255,0,0,1-1.009-.4,1.831,1.831,0,0,1-.351-1.211v-2.84l-1.024.037v2.8a2.033,2.033,0,0,1-.306,1.218,1,1,0,0,1-.852.389h-1.248l-.037-4.484-1.024.037V63.3H111.572a.747.747,0,0,1-.389-.082.568.568,0,0,1-.179-.3,8.568,8.568,0,0,1-.194-.874,6.038,6.038,0,0,0-.538-1.749,2.989,2.989,0,0,0-.942-.994,3.8,3.8,0,0,0-1.121-.5,5.066,5.066,0,0,0-1.255-.157,4.88,4.88,0,0,0-1.263.149l-.1.06.224.994h.1a3.438,3.438,0,0,1,.994-.135,3.788,3.788,0,0,1,.964.12,2.6,2.6,0,0,1,.83.351,2,2,0,0,1,.665.747,5.388,5.388,0,0,1,.411,1.383.7.7,0,0,0,.045.329,2.421,2.421,0,0,0,.209.747H96.357V57.25l-1.024.037v6.076c0,1.749-.747,2.6-2.332,2.6a2.675,2.675,0,0,1-1.689-.516,2.13,2.13,0,0,1-.665-1.7,6.905,6.905,0,0,1,.314-1.891v-.164H89.93v.067a7.607,7.607,0,0,0-.314,2.018,2.989,2.989,0,0,0,.986,2.481A3.811,3.811,0,0,0,93.009,67a3.55,3.55,0,0,0,2.242-.673A2.84,2.84,0,0,0,96.3,64.409H124.06a2.19,2.19,0,0,0,1.121-.284,1.539,1.539,0,0,0,.62-.673,1.816,1.816,0,0,0,.673.673,2.324,2.324,0,0,0,1.166.284h13.982v-7.1Z" transform="translate(-22.624 -14.467)" fill="#55C5D1"/>
      <path id="Path_2554" data-name="Path 2554" d="M161.06,57.367l.03,7.1h1.024l-.037-7.137Z" transform="translate(-40.68 -14.487)" fill="#55C5D1"/>
      <path id="Path_2555" data-name="Path 2555" d="M10.941,59.244a1.756,1.756,0,0,0-1.98,2V63.96H2.168a1.2,1.2,0,0,1-.852-.262,1.113,1.113,0,0,1-.262-.807V60.246l-1.061.03v2.668a1.756,1.756,0,0,0,1.95,2h8.108V61.3a1.084,1.084,0,0,1,.269-.807,1.166,1.166,0,0,1,.882-.254h1.323l.037,4.02h1.016l-.037-4.94Z" transform="translate(0.026 -14.966)" fill="#55C5D1"/>
      <rect id="Rectangle_134" data-name="Rectangle 134" width="1.046" height="7.294" transform="translate(15.511 44.891)" fill="#55C5D1"/>
      <path id="Path_2556" data-name="Path 2556" d="M36.765,29.7H29.77v6.987h3.042V32.734h3.953Z" transform="translate(-7.503 -7.505)" fill="#55C5D1"/>
      <rect id="Rectangle_135" data-name="Rectangle 135" width="2.451" height="2.451" transform="translate(27.759 27.665)" fill="#55C5D1"/>
      <rect id="Rectangle_136" data-name="Rectangle 136" width="1.749" height="1.749" transform="translate(26.534 32.904)" fill="#55C5D1"/>
      <rect id="Rectangle_137" data-name="Rectangle 137" width="1.749" height="3.064" transform="translate(17.573 33.786)" fill="#55C5D1"/>
      <rect id="Rectangle_138" data-name="Rectangle 138" width="1.749" height="1.749" transform="translate(8.815 32.799)" fill="#55C5D1"/>
      <rect id="Rectangle_139" data-name="Rectangle 139" width="1.749" height="1.749" transform="translate(2.299 26.275)" fill="#55C5D1"/>
      <rect id="Rectangle_140" data-name="Rectangle 140" width="2.802" height="1.749" transform="translate(0.019 17.547)" fill="#55C5D1"/>
      <rect id="Rectangle_141" data-name="Rectangle 141" width="1.749" height="1.749" transform="translate(2.426 8.788)" fill="#55C5D1"/>
      <rect id="Rectangle_142" data-name="Rectangle 142" width="1.749" height="1.749" transform="translate(8.875 2.347)" fill="#55C5D1"/>
      <rect id="Rectangle_143" data-name="Rectangle 143" width="1.749" height="3.064" transform="translate(17.686)" fill="#55C5D1"/>
      <rect id="Rectangle_144" data-name="Rectangle 144" width="1.749" height="1.749" transform="translate(26.437 2.302)" fill="#55C5D1"/>
      <rect id="Rectangle_145" data-name="Rectangle 145" width="1.749" height="1.749" transform="translate(32.878 8.743)" fill="#55C5D1"/>
      <rect id="Rectangle_146" data-name="Rectangle 146" width="3.064" height="1.749" transform="translate(33.917 17.562)" fill="#55C5D1"/>
      <rect id="Rectangle_147" data-name="Rectangle 147" width="1.749" height="1.749" transform="translate(32.878 26.357)" fill="#55C5D1"/>
      <rect id="Rectangle_148" data-name="Rectangle 148" width="2.451" height="2.982" transform="translate(20.989 31.379)" fill="#55C5D1"/>
      <rect id="Rectangle_149" data-name="Rectangle 149" width="2.982" height="2.451" transform="translate(31.585 21.029)" fill="#55C5D1"/>
      <rect id="Rectangle_150" data-name="Rectangle 150" width="2.982" height="2.451" transform="translate(31.585 13.362)" fill="#55C5D1"/>
      <rect id="Rectangle_151" data-name="Rectangle 151" width="2.451" height="2.982" transform="translate(13.568 31.379)" fill="#55C5D1"/>
      <rect id="Rectangle_152" data-name="Rectangle 152" width="2.451" height="2.451" transform="translate(6.805 27.68)" fill="#55C5D1"/>
      <rect id="Rectangle_153" data-name="Rectangle 153" width="2.451" height="2.451" transform="translate(27.759 6.726)" fill="#55C5D1"/>
      <rect id="Rectangle_154" data-name="Rectangle 154" width="2.451" height="2.982" transform="translate(21.228 2.481)" fill="#55C5D1"/>
      <rect id="Rectangle_155" data-name="Rectangle 155" width="2.982" height="2.451" transform="translate(2.56 21.156)" fill="#55C5D1"/>
      <rect id="Rectangle_156" data-name="Rectangle 156" width="2.982" height="2.451" transform="translate(2.56 13.362)" fill="#55C5D1"/>
      <rect id="Rectangle_157" data-name="Rectangle 157" width="2.451" height="2.982" transform="translate(13.56 2.481)" fill="#55C5D1"/>
      <rect id="Rectangle_158" data-name="Rectangle 158" width="2.451" height="2.451" transform="translate(6.805 6.726)" fill="#55C5D1"/>
      <path id="Path_2557" data-name="Path 2557" d="M10.33,17.247h6.995V10.26H14.283v3.946H10.33Z" transform="translate(-2.591 -2.593)" fill="#55C5D1"/>
      <rect id="Rectangle_159" data-name="Rectangle 159" width="3.042" height="4.992" transform="translate(16.983 25.677)" fill="#55C5D1"/>
      <rect id="Rectangle_160" data-name="Rectangle 160" width="4.992" height="3.042" transform="translate(6.259 16.904)" fill="#55C5D1"/>
      <rect id="Rectangle_161" data-name="Rectangle 161" width="4.992" height="3.042" transform="translate(25.756 16.904)" fill="#55C5D1"/>
      <rect id="Rectangle_162" data-name="Rectangle 162" width="3.042" height="4.992" transform="translate(16.983 6.18)" fill="#55C5D1"/>
      <path id="Path_2558" data-name="Path 2558" d="M29.777,10.25v3.729l-.007.224v3.042h6.995V14.2H32.812V10.25Z" transform="translate(-7.503 -2.59)" fill="#55C5D1"/>
      <path id="Path_2559" data-name="Path 2559" d="M17.235,36.777V29.79H10.24v3.034h3.953v3.953Z" transform="translate(-2.568 -7.528)" fill="#55C5D1"/>
      <path id="Path_2560" data-name="Path 2560" d="M82.808,24.866l.389-.149a8.527,8.527,0,0,0,2.242-1.233,7,7,0,0,0,2.5-3.774,9.356,9.356,0,0,0,.314-2.4,8.774,8.774,0,0,0-.613-3.355,6.345,6.345,0,0,0-1.853-2.474,8.758,8.758,0,0,0-3.184-1.569A17.068,17.068,0,0,0,78,9.359H66.36v22.9h4.11V25.531h7.869l4.432,6.726h5.044Zm-.4-4.088a5.3,5.3,0,0,1-1.816.949,8.459,8.459,0,0,1-2.466.329H70.47V12.827h7.652A6.853,6.853,0,0,1,82.4,13.97,4.021,4.021,0,0,1,83.9,17.281a4.984,4.984,0,0,1-.366,1.95,3.953,3.953,0,0,1-1.113,1.495" transform="translate(-16.75 -2.364)" fill="#55C5D1"/>
      <path id="Path_2561" data-name="Path 2561" d="M120.681,28.713H105.1V21.5h13.519V18.228H105.1V12.877h15.267V9.35H100.99V32.225h19.691Z" transform="translate(-25.5 -2.363)" fill="#55C5D1"/>
      <path id="Path_2562" data-name="Path 2562" d="M155.046,13.945a6.27,6.27,0,0,0-1.853-2.474A8.721,8.721,0,0,0,150.016,9.9a17.091,17.091,0,0,0-4.611-.553H133.77v22.9h4.11V25.528h7.869l4.424,6.726h5.044l-5-7.361.389-.149a8.743,8.743,0,0,0,2.242-1.233,7.346,7.346,0,0,0,1.584-1.719,7.235,7.235,0,0,0,.927-2.078,9.357,9.357,0,0,0,.306-2.406,8.64,8.64,0,0,0-.62-3.355m-4.118,5.306a3.953,3.953,0,0,1-1.113,1.495A5.366,5.366,0,0,1,148,21.7a8.512,8.512,0,0,1-2.474.329H137.88V12.824h7.645a6.83,6.83,0,0,1,4.29,1.143,4.021,4.021,0,0,1,1.495,3.311,5.127,5.127,0,0,1-.366,1.95" transform="translate(-33.784 -2.362)" fill="#55C5D1"/>
    </g>
  </g>
</svg>
